<svg width="38" height="37" viewBox="0 0 38 37" fill="none" xmlns="http://www.w3.org/2000/svg">
<path d="M16.0769 0.5C7.19808 0.5 0 6.94688 0 14.9C0 18.9847 1.91188 22.6584 4.96409 25.2753C4.5263 26.6879 3.61307 28.0928 1.9354 29.345C1.93445 29.3459 1.9335 29.3469 1.93254 29.3478C1.79417 29.3997 1.67504 29.4917 1.59093 29.6117C1.50682 29.7318 1.4617 29.8741 1.46154 30.02C1.46154 30.211 1.53853 30.3941 1.67558 30.5291C1.81262 30.6641 1.9985 30.74 2.19231 30.74C2.24224 30.7394 2.29198 30.7337 2.34075 30.7231C5.17623 30.715 7.59553 29.5217 9.51998 28.0259C10.4332 28.3919 11.3865 28.6937 12.3803 28.9034C11.936 27.665 11.6923 26.3466 11.6923 24.98C11.6923 17.8333 18.2488 12.02 26.3077 12.02C28.3275 12.02 30.253 12.3856 32.0054 13.0466C30.9882 5.9704 24.2528 0.5 16.0769 0.5ZM26.3077 14.9C23.2067 14.9 20.2327 15.962 18.04 17.8524C15.8472 19.7427 14.6154 22.3066 14.6154 24.98C14.6154 27.6534 15.8472 30.2173 18.04 32.1076C20.2327 33.998 23.2067 35.06 26.3077 35.06C27.8027 35.058 29.2833 34.8088 30.6695 34.3259C32.4618 35.5596 34.631 36.4746 37.1151 36.4831C37.1657 36.4941 37.2174 36.4998 37.2692 36.5C37.463 36.5 37.6489 36.4241 37.786 36.2891C37.923 36.1541 38 35.971 38 35.78C37.9998 35.6327 37.9537 35.4889 37.8679 35.3682C37.7821 35.2475 37.6609 35.1557 37.5204 35.105C36.1828 34.1045 35.3256 33.0031 34.8114 31.8819C36.8548 30.0151 37.9952 27.5467 38 24.98C38 22.3066 36.7681 19.7427 34.5754 17.8524C32.3827 15.962 29.4087 14.9 26.3077 14.9Z" fill="white"/>
</svg>
