<svg width="16" height="16" viewBox="0 0 16 16" fill="none" xmlns="http://www.w3.org/2000/svg">
<path d="M9.41409 7.99985L15.7071 1.70685C15.8946 1.51934 15.9999 1.26503 15.9999 0.999849C15.9999 0.734673 15.8946 0.480357 15.7071 0.292849C15.5196 0.105341 15.2653 0 15.0001 0C14.7349 0 14.4806 0.105341 14.2931 0.292849L8.00009 6.58585L1.70709 0.292849C1.61425 0.200005 1.50403 0.126356 1.38272 0.0761092C1.26141 0.0258621 1.1314 0 1.00009 0C0.868791 0 0.738775 0.0258621 0.617468 0.0761092C0.49616 0.126356 0.385938 0.200005 0.293093 0.292849C0.105585 0.480357 0.000244141 0.734673 0.000244141 0.999849C0.000244141 1.26503 0.105585 1.51934 0.293093 1.70685L6.58609 7.99985L0.293093 14.2928C0.105585 14.4804 0.000244141 14.7347 0.000244141 14.9998C0.000244141 15.265 0.105585 15.5193 0.293093 15.7069C0.480601 15.8944 0.734917 15.9997 1.00009 15.9997C1.26527 15.9997 1.51959 15.8944 1.70709 15.7069L8.00009 9.41385L14.2931 15.7069C14.3857 15.8 14.4959 15.874 14.6172 15.9244C14.7386 15.9749 14.8687 16.0009 15.0001 16.0009C15.1315 16.0009 15.2616 15.9749 15.3829 15.9244C15.5043 15.874 15.6144 15.8 15.7071 15.7069C15.8 15.6141 15.8738 15.5039 15.9241 15.3825C15.9744 15.2612 16.0003 15.1312 16.0003 14.9998C16.0003 14.8685 15.9744 14.7385 15.9241 14.6172C15.8738 14.4958 15.8 14.3856 15.7071 14.2928L9.41409 7.99985Z" fill="#5B6178"/>
</svg>
