<svg width="20" height="20" viewBox="0 0 20 20" fill="none" xmlns="http://www.w3.org/2000/svg">
<path d="M4.99996 6.66667C4.99996 6.20643 5.37306 5.83333 5.83329 5.83333H14.1666C14.6269 5.83333 15 6.20643 15 6.66667C15 7.1269 14.6269 7.5 14.1666 7.5H5.83329C5.37306 7.5 4.99996 7.1269 4.99996 6.66667Z" fill="white"/>
<path d="M5.83329 9.16667C5.37306 9.16667 4.99996 9.53976 4.99996 10C4.99996 10.4602 5.37306 10.8333 5.83329 10.8333H9.16663C9.62686 10.8333 9.99996 10.4602 9.99996 10C9.99996 9.53976 9.62686 9.16667 9.16663 9.16667H5.83329Z" fill="white"/>
<path fill-rule="evenodd" clip-rule="evenodd" d="M15 14.1667H16.6666C17.5871 14.1667 18.3333 13.4205 18.3333 12.5V4.16667C18.3333 3.24619 17.5871 2.5 16.6666 2.5H3.33329C2.41282 2.5 1.66663 3.24619 1.66663 4.16667V12.5C1.66663 13.4205 2.41282 14.1667 3.33329 14.1667H9.99996V15.8333C9.99996 17.435 12.0389 18.1147 13 16.8333L15 14.1667ZM11.6666 12.5V15.8333L14.1666 12.5H16.6666V4.16667H3.33329V12.5H11.6666Z" fill="white"/>
</svg>
