<svg width="700" height="700" viewBox="0 0 700 700" fill="none" xmlns="http://www.w3.org/2000/svg">
<g filter="url(#filter0_i_1312_24992)">
<path fill-rule="evenodd" clip-rule="evenodd" d="M605.701 464.508C624.222 444.288 638.003 420.717 647.05 393.904C656.386 366.862 661 337.468 661 305.807C661 260.77 645.268 225.751 612.893 202.5C581.739 179.896 541.866 169 494.053 169H281.728L281.719 169.045H164.531V184.78H215.141V200.515H275.641L272.602 216.252L164.531 216.249V200.514H151.878V216.249H164.531L164.531 231.988H269.563L266.524 247.722H189.836V263.457H227.793V279.191H177.183V294.926H257.407L254.594 309.491H163.962V325.696H227.793V337.308H202.488V357.869H245.251L242.211 373.606H151.878V389.341H202.488V405.072H177.183V420.807H233.095L227.793 420.81V436.545L202.488 436.545V452.28H227.016L223.977 468.018H189.836V483.749H139.226V499.484H217.9L215.141 499.487V513.768L214.86 515.222H113.921V530.957H211.821L211.813 531H432.613C506.245 531 564.41 509.217 605.675 464.537L605.688 464.523L605.701 464.508ZM278.406 186.198L278.68 184.78H278.406V186.198ZM528.946 404.972L528.916 405.009L528.886 405.046C504.714 435.135 470.664 450.49 425.413 450.49H322.702L361.728 249.51H468.133C500.264 249.51 522.608 255.883 536.774 267.046C550.506 277.867 557.989 294.349 557.989 318.296C557.989 334.912 555.426 350.687 550.335 365.672L550.316 365.727L550.299 365.781C545.537 380.375 538.421 393.416 528.946 404.972ZM126.568 169.045H139.221V184.78H126.568V169.045ZM164.531 247.722H151.878V263.457H164.531V247.722ZM139.226 279.191H151.879V294.926H139.226V279.191ZM113.916 279.191H101.263V294.926H113.916V279.191ZM126.568 310.66H139.221V326.396H126.568V310.66ZM164.531 405.072H151.878V420.807H164.531V405.072ZM164.531 342.133H177.184V357.869H164.531V342.133ZM113.916 405.072H101.263V420.807H113.916V405.072ZM164.531 452.28H177.184V468.015H164.531V452.28ZM101.263 452.28H88.6101V468.015H101.263V452.28ZM101.263 483.749H113.916V499.484H101.263V483.749ZM50.653 515.222H38V530.957H50.653V515.222ZM75.9632 515.222H88.6163V530.957H75.9632V515.222ZM63.3055 436.545H50.6525V452.28H63.3055V436.545ZM126.568 373.606H139.221V389.341H126.568V373.606ZM101.263 373.606H88.6101V389.341H101.263V373.606ZM75.9632 405.072H88.6163V420.807H75.9632V405.072ZM139.221 342.133H126.568V357.869H139.221V342.133ZM101.263 342.133H113.916V357.869H101.263V342.133ZM139.221 231.983H126.568V247.719H139.221V231.983ZM126.568 436.545H139.221V452.28H126.568V436.545ZM75.9581 483.749H63.305V499.484H75.9581V483.749ZM50.6525 373.606H63.3055V389.341H50.6525V373.606ZM88.6163 310.66H75.9632V326.396H88.6163V310.66ZM88.6101 247.722H101.263V263.457H88.6101V247.722ZM101.263 169.045H88.6101V184.78H101.263V169.045ZM101.263 200.514H113.916V216.249H101.263V200.514Z" fill="url(#paint0_linear_1312_24992)"/>
</g>
<defs>
<filter id="filter0_i_1312_24992" x="37" y="169" width="624" height="365" filterUnits="userSpaceOnUse" color-interpolation-filters="sRGB">
<feFlood flood-opacity="0" result="BackgroundImageFix"/>
<feBlend mode="normal" in="SourceGraphic" in2="BackgroundImageFix" result="shape"/>
<feColorMatrix in="SourceAlpha" type="matrix" values="0 0 0 0 0 0 0 0 0 0 0 0 0 0 0 0 0 0 127 0" result="hardAlpha"/>
<feOffset dx="-1" dy="12"/>
<feGaussianBlur stdDeviation="1.5"/>
<feComposite in2="hardAlpha" operator="arithmetic" k2="-1" k3="1"/>
<feColorMatrix type="matrix" values="0 0 0 0 0.737255 0 0 0 0 0.878431 0 0 0 0 0.72549 0 0 0 1 0"/>
<feBlend mode="normal" in2="shape" result="effect1_innerShadow_1312_24992"/>
</filter>
<linearGradient id="paint0_linear_1312_24992" x1="114.822" y1="342.913" x2="673.653" y2="335.097" gradientUnits="userSpaceOnUse">
<stop offset="0.187554" stop-color="#F7E5DF"/>
<stop offset="1" stop-color="#ACDEAE"/>
</linearGradient>
</defs>
</svg>
