<svg width="191" height="22" viewBox="0 0 191 22" fill="none" xmlns="http://www.w3.org/2000/svg">
<path fill-rule="evenodd" clip-rule="evenodd" d="M46.5607 21.4456L49.8 17.4259H62.9847L64.4571 21.4456H71.2518L63.4124 0.554432H56.2208L38.9534 21.4456H46.5607ZM53.462 12.8628L58.8398 6.15066L61.3057 12.8628H53.462ZM79.1413 14.3337L79.267 13.6945H72.1619L72.0716 14.1532C71.9781 14.6285 71.9319 15.1208 71.9319 15.6295C71.9319 16.7662 72.2036 17.7724 72.7778 18.6252C73.3541 19.4809 74.2133 20.1495 75.3257 20.6359L75.3293 20.6376L75.3331 20.6391C77.5147 21.5633 80.5769 22 84.4572 22C87.2782 22 89.7047 21.8136 91.7273 21.4331C93.7589 21.0694 95.4493 20.4594 96.7676 19.5818L96.7691 19.5808C97.7941 18.8941 98.5771 18.0173 99.1189 16.9613C99.6777 15.9146 99.96 14.8316 99.96 13.7167C99.96 12.1316 99.3475 10.8714 98.0262 10.0582C96.8073 9.29478 95.0884 8.83357 92.94 8.625L92.9337 8.62438L84.2914 7.93101L84.2901 7.93091C83.1996 7.84024 82.5051 7.68212 82.1257 7.50045C81.8505 7.36864 81.7022 7.17562 81.7022 6.81403C81.7022 6.3267 81.9298 5.91251 82.4507 5.54472L82.4629 5.53611L82.4746 5.527C83.3752 4.82505 85.1315 4.39676 87.9582 4.39676C89.9954 4.39676 91.4667 4.60796 92.4318 4.98413L92.4389 4.98687L92.446 4.98946C92.9061 5.15763 93.2132 5.37756 93.4098 5.63559C93.6046 5.89117 93.7203 6.22282 93.7234 6.6579L93.6461 7.64019H100.688L100.771 7.17268C100.841 6.77782 100.876 6.39018 100.876 6.01011C100.876 3.98672 99.7907 2.44096 97.683 1.43586C95.6297 0.456677 92.6331 0 88.7762 0C83.4481 0 79.4931 0.852725 77.0866 2.69171L77.085 2.69295L77.0834 2.6942C76.2543 3.33644 75.6121 4.09173 75.1611 4.95659C74.7102 5.82115 74.4841 6.72837 74.4841 7.6734C74.4841 9.18192 75.109 10.3888 76.4202 11.1948C77.6587 11.9561 79.3861 12.4177 81.5368 12.6265L81.5389 12.6267L90.0221 13.4037L90.0289 13.4042C90.9874 13.4748 91.6335 13.6385 92.032 13.8496C92.314 13.9989 92.5128 14.2631 92.5128 14.7979C92.5128 15.122 92.4147 15.4219 92.2125 15.7075C92.0026 16.0039 91.7236 16.2486 91.3679 16.4445L91.3638 16.4467L91.3597 16.4491C90.123 17.153 88.1303 17.5478 85.2752 17.5478C83.0871 17.5478 81.5136 17.309 80.489 16.8831C80.0187 16.6877 79.6881 16.4227 79.4688 16.0898C79.2462 15.7517 79.1174 15.3111 79.1174 14.7424C79.1174 14.5277 79.1286 14.3983 79.1413 14.3337ZM128.403 21.4456L133.169 0.554432H126.68L124.88 8.37193H110.43L112.229 0.554432H105.738L100.972 21.4456H107.462L109.36 13.1014H123.811L121.914 21.4456H128.403ZM157.816 16.8548H139.654L140.578 12.8519H157.693L158.694 8.42738H141.58L142.315 5.14525H160.012L161.088 0.554432H136.893L132.127 21.4456H156.74L157.816 16.8548ZM186.68 17.6083C187.942 16.4417 188.881 15.0819 189.498 13.5351C190.135 11.9741 190.449 10.2773 190.449 8.44961C190.449 5.84999 189.376 3.82879 187.169 2.48697C185.045 1.18301 182.328 0.554432 179.069 0.554432H164.596L159.83 21.4456H174.881C179.9 21.4456 183.865 20.1884 186.678 17.61L186.679 17.6091L186.68 17.6083ZM181.448 14.1724L181.446 14.1746L181.444 14.1767C179.796 15.9132 177.475 16.7993 174.39 16.7993H167.389L170.049 5.20069H177.302C179.493 5.20069 181.016 5.5685 181.981 6.21268C182.917 6.8372 183.427 7.78836 183.427 9.17037C183.427 10.1292 183.253 11.0396 182.906 11.9044L182.904 11.9076L182.903 11.9108C182.579 12.753 182.093 13.5055 181.448 14.1724ZM42.067 13.5334C41.4503 15.0808 40.5109 16.4411 39.2484 17.608L39.2475 17.6088L39.2466 17.6096C36.4338 20.1881 32.4689 21.4453 27.4497 21.4453H12.3987L12.3992 21.4429H5.72587V20.5348H12.6064L12.6256 20.4504V19.6267H12.8135L12.8136 19.6266H7.45081V18.7185H10.9007V17.8106H13.2278L13.435 16.9024H11.7632V15.9943L13.4881 15.9943V15.0863H13.8493L13.8494 15.0861H10.0382V14.178H11.7632V13.2702H8.31328V12.3621H14.4708L14.678 11.4539H11.7632V10.5458H14.8851L14.8852 10.5456H13.4881V9.63753H15.0923L15.1015 9.59716H9.137V8.66197H15.3149L15.5066 7.82146H10.0382V6.91337H13.4881V6.00536H11.7632H10.9007V5.09727H11.7632H16.1281L16.3352 4.18925H9.17575L9.17578 3.28099L16.5424 3.28112L16.7496 2.37294H12.6256V1.46489H9.17575V0.556797H17.1639L17.1645 0.554118H31.6379C34.897 0.554118 37.615 1.18294 39.7387 2.48741C41.9455 3.82924 43.0179 5.85017 43.0179 8.4493C43.0179 10.2765 42.7034 11.9728 42.067 13.5334ZM9.17578 3.28099H8.31328V2.3729H9.17578V3.28099ZM16.9567 1.46489L16.9381 1.5463V1.46489H16.9567ZM34.0143 14.1743L34.0163 14.1721C34.6622 13.5052 35.1473 12.7526 35.4719 11.9104L35.4731 11.9073L35.4743 11.9041C35.8214 11.0393 35.9961 10.1289 35.9961 9.17006C35.9961 7.78805 35.486 6.83688 34.5499 6.21237C33.5843 5.56819 32.0612 5.20038 29.871 5.20038H22.6178L19.9575 16.799H26.9589C30.0435 16.799 32.3646 15.9129 34.0122 14.1764L34.0143 14.1743ZM7.45045 0.556797H6.58795V1.46489H7.45045V0.556797ZM8.31328 5.09727H9.17578V6.00536H8.31328V5.09727ZM8.31331 6.91337H7.45081V7.82146H8.31331V6.91337ZM4.86301 6.91337H5.72551V7.82146H4.86301V6.91337ZM7.45045 8.72948H6.58795V9.63757H7.45045V8.72948ZM8.31328 14.178H9.17578V15.0861H8.31328V14.178ZM10.0382 10.5458H9.17575V11.4539H10.0382V10.5458ZM4.86301 14.178H5.72551V15.0861H4.86301V14.178ZM10.0382 16.9024H9.17575V17.8105H10.0382V16.9024ZM4.00054 16.9024H4.86304V17.8105H4.00054V16.9024ZM5.72551 18.7185H4.86301V19.6266H5.72551V18.7185ZM0.550659 20.5348H1.41316V21.4429H0.550659V20.5348ZM4.00096 20.5348H3.13846V21.4429H4.00096V20.5348ZM1.41313 15.9943H2.27563V16.9024H1.41313V15.9943ZM7.45045 12.3621H6.58795V13.2702H7.45045V12.3621ZM4.00054 12.3621H4.86304V13.2702H4.00054V12.3621ZM4.00096 14.178H3.13846V15.0861H4.00096V14.178ZM6.58795 10.5458H7.45045V11.4539H6.58795V10.5458ZM5.72551 10.5458H4.86301V11.4539H5.72551V10.5458ZM6.58795 4.18901H7.45045V5.0971H6.58795V4.18901ZM7.45045 15.9943H6.58795V16.9024H7.45045V15.9943ZM2.2756 18.7185H3.1381V19.6266H2.2756V18.7185ZM2.27563 12.3621H1.41313V13.2702H2.27563V12.3621ZM3.13846 8.72948H4.00096V9.63757H3.13846V8.72948ZM4.86304 5.09727H4.00054V6.00536H4.86304V5.09727ZM4.00054 0.556797H4.86304V1.46489H4.00054V0.556797ZM5.72551 2.3729H4.86301V3.28099H5.72551V2.3729Z" fill="white"/>
</svg>
