<svg width="25" height="25" viewBox="0 0 25 25" fill="none" xmlns="http://www.w3.org/2000/svg">
<path d="M12.0055 0.0224609L8.80403 3.18884C8.65712 3.32918 8.59572 3.53749 8.64615 3.73484C8.69659 3.93219 8.85008 4.08569 9.04524 4.13831C9.24259 4.19094 9.4509 4.13173 9.59343 3.98701L11.4441 2.15823V8.07874C11.4419 8.28048 11.5472 8.46906 11.7226 8.57212C11.898 8.67299 12.1129 8.67299 12.2884 8.57212C12.4638 8.46906 12.569 8.28048 12.5668 8.07874V2.15823L14.4176 3.98701C14.5601 4.13173 14.7684 4.19094 14.9658 4.13831C15.1609 4.08569 15.3144 3.93219 15.3648 3.73484C15.4153 3.53749 15.3539 3.32918 15.207 3.18884L12.0055 0.0224609ZM3.55451 8.64887C3.40979 8.65544 3.27164 8.71684 3.17078 8.82209L0.0065918 12.0236L3.17078 15.225C3.31111 15.3719 3.51943 15.4333 3.71678 15.3829C3.91413 15.3325 4.06762 15.179 4.12025 14.9838C4.17288 14.7865 4.11367 14.5781 3.96895 14.4356L2.13798 12.5849H8.06068C8.26242 12.5871 8.451 12.4818 8.55406 12.3064C8.65492 12.131 8.65492 11.9161 8.55406 11.7407C8.451 11.5653 8.26242 11.46 8.06068 11.4622H2.13798L3.96895 9.6115C4.13341 9.44923 4.18384 9.20145 4.09174 8.98875C3.99965 8.77605 3.78695 8.64229 3.55451 8.64887ZM20.4389 8.64887C20.2109 8.64887 20.0048 8.78701 19.9171 8.99752C19.8293 9.20802 19.8798 9.45142 20.042 9.6115L21.873 11.4622L15.9503 11.4622C15.7486 11.46 15.56 11.5653 15.4569 11.7407C15.3561 11.9161 15.3561 12.131 15.4569 12.3064C15.56 12.4818 15.7486 12.5871 15.9503 12.5849L21.873 12.5849L20.042 14.4356C19.8973 14.5781 19.8381 14.7865 19.8907 14.9838C19.9434 15.179 20.0969 15.3325 20.2942 15.3829C20.4916 15.4333 20.6999 15.3719 20.8402 15.225L24.0066 12.0236L20.8402 8.82209C20.735 8.71246 20.5902 8.65106 20.4389 8.64887ZM11.9967 15.4004C11.6875 15.4048 11.4398 15.6592 11.4441 15.9706L11.4441 21.8911L9.59343 20.0601C9.48818 19.9527 9.34126 19.8935 9.18996 19.8935C8.96191 19.8956 8.75579 20.0338 8.67247 20.2465C8.58695 20.4592 8.63957 20.7004 8.80403 20.8583L12.0055 24.0247L15.207 20.8583C15.3539 20.7201 15.4153 20.5096 15.3648 20.3145C15.3144 20.1171 15.1609 19.9636 14.9658 19.911C14.7684 19.8584 14.5601 19.9154 14.4176 20.0601L12.5668 21.8911L12.5668 15.9706C12.569 15.8171 12.5098 15.6723 12.4024 15.5649C12.2949 15.4575 12.148 15.3982 11.9967 15.4004Z" fill="#737992"/>
</svg>
