<svg width="21" height="20" viewBox="0 0 21 20" fill="none" xmlns="http://www.w3.org/2000/svg">
<path fill-rule="evenodd" clip-rule="evenodd" d="M12.5481 13.2266C11.5908 13.8225 10.4606 14.1667 9.25 14.1667C5.79822 14.1667 3 11.3685 3 7.91669C3 4.46491 5.79822 1.66669 9.25 1.66669C12.7018 1.66669 15.5 4.46491 15.5 7.91669C15.5 9.55477 14.8698 11.0457 13.8387 12.1602L18.5893 16.9108C18.9147 17.2362 18.9147 17.7638 18.5893 18.0893C18.2638 18.4147 17.7362 18.4147 17.4107 18.0893L12.5481 13.2266ZM13.8333 7.91669C13.8333 10.448 11.7813 12.5 9.25 12.5C6.71869 12.5 4.66667 10.448 4.66667 7.91669C4.66667 5.38538 6.71869 3.33335 9.25 3.33335C11.7813 3.33335 13.8333 5.38538 13.8333 7.91669Z" fill="white"/>
</svg>
