<svg width="20" height="20" viewBox="0 0 20 20" fill="none" xmlns="http://www.w3.org/2000/svg">
<path fill-rule="evenodd" clip-rule="evenodd" d="M10 1.66667C10.7221 1.66667 11.362 2.13161 11.5851 2.81831L12.8948 6.84904H17.1329C17.855 6.84904 18.4949 7.31398 18.718 8.00068C18.9412 8.68739 18.6967 9.43967 18.1126 9.86407L14.6838 12.3552L15.9935 16.3859C16.2166 17.0726 15.9722 17.8249 15.3881 18.2493C14.8039 18.6737 14.0129 18.6737 13.4288 18.2493L10 15.7582L6.57127 18.2493C5.98713 18.6737 5.19614 18.6737 4.61199 18.2493C4.02784 17.8249 3.78341 17.0726 4.00654 16.3859L5.3162 12.3552L1.88746 9.86407C1.30331 9.43967 1.05888 8.68739 1.282 8.00068C1.50513 7.31398 2.14505 6.84904 2.8671 6.84904H7.10526L8.41493 2.81831C8.63805 2.13161 9.27798 1.66667 10 1.66667ZM8.31617 8.51571H2.8671L7.27549 11.7186L5.59163 16.901L10 13.6981L14.4084 16.901L12.7246 11.7186L17.1329 8.51571H11.6839L10 3.33334L8.31617 8.51571Z" fill="white"/>
</svg>
