<svg width="86" height="85" viewBox="0 0 86 85" fill="none" xmlns="http://www.w3.org/2000/svg">
<path fill-rule="evenodd" clip-rule="evenodd" d="M6.98378 78.3491V6.75423H78.6357V78.3491H6.98378ZM6.3324 0.245605C3.09467 0.245605 0.469971 2.86821 0.469971 6.10336V78.9999C0.469971 82.2351 3.09467 84.8577 6.3324 84.8577H79.2871C82.5248 84.8577 85.1495 82.2351 85.1495 78.9999V6.10337C85.1495 2.86822 82.5248 0.245605 79.2871 0.245605H6.3324ZM58.0086 19.7715C62.2057 19.7715 65.6081 23.1711 65.6081 27.3649C65.6081 31.5586 62.2057 34.9583 58.0086 34.9583C53.8116 34.9583 50.4092 31.5586 50.4092 27.3649C50.4092 23.1711 53.8116 19.7715 58.0086 19.7715ZM72.1219 27.3649C72.1219 19.5765 65.8032 13.2628 58.0086 13.2628C50.2141 13.2628 43.8954 19.5765 43.8954 27.3649C43.8954 35.1532 50.2141 41.4669 58.0086 41.4669C65.8032 41.4669 72.1219 35.1532 72.1219 27.3649ZM13.4976 29.5344C13.4976 27.7371 14.9558 26.2801 16.7545 26.2801H34.1247C35.9234 26.2801 37.3816 27.7371 37.3816 29.5344C37.3816 31.3317 35.9234 32.7887 34.1247 32.7887H16.7545C14.9558 32.7887 13.4976 31.3317 13.4976 29.5344ZM29.7821 19.7715C31.5809 19.7715 33.039 18.3145 33.039 16.5172C33.039 14.7199 31.5809 13.2628 29.7821 13.2628H16.7545C14.9558 13.2628 13.4976 14.7199 13.4976 16.5172C13.4976 18.3145 14.9558 19.7715 16.7545 19.7715H29.7821ZM71.5745 70.3914C70.5768 71.8869 68.5547 72.291 67.058 71.294L49.4981 59.5967L40.5014 66.7884C39.3119 67.7392 37.6218 67.7392 36.4323 66.7884L14.7196 49.432C13.315 48.3093 13.0873 46.2614 14.2109 44.8579C15.3346 43.4544 17.3841 43.2269 18.7887 44.3497L38.4668 60.0796L47.2886 53.0278C48.3961 52.1425 49.9497 52.0751 51.1298 52.8613L70.6712 65.8785C72.1679 66.8755 72.5723 68.896 71.5745 70.3914Z" fill="#CACACA"/>
</svg>
