<svg width="83" height="83" viewBox="0 0 83 83" fill="none" xmlns="http://www.w3.org/2000/svg">
<path fill-rule="evenodd" clip-rule="evenodd" d="M7.09776 21.6912V7.10791H30.0327V21.6912H7.09776ZM6.47226 0.85791C3.36318 0.85791 0.842773 3.37631 0.842773 6.48291V22.3162C0.842773 25.4228 3.36318 27.9412 6.47226 27.9412H30.6582C33.7673 27.9412 36.2877 25.4228 36.2877 22.3162V6.48291C36.2877 3.37631 33.7673 0.85791 30.6582 0.85791H6.47226ZM52.9676 75.8579V61.2746H75.9026V75.8579H52.9676ZM52.3421 55.0246C49.2331 55.0246 46.7126 57.543 46.7126 60.6496V76.4829C46.7126 79.5895 49.2331 82.1079 52.3421 82.1079H76.5281C79.6371 82.1079 82.1575 79.5895 82.1575 76.4829V60.6496C82.1575 57.543 79.6371 55.0246 76.5281 55.0246H52.3421ZM52.9676 7.10791V42.5246H75.9026V7.10791H52.9676ZM46.7126 6.48291C46.7126 3.37631 49.2331 0.85791 52.3421 0.85791H76.5281C79.6371 0.85791 82.1575 3.37632 82.1575 6.48291V43.1496C82.1575 46.2562 79.6371 48.7746 76.5281 48.7746H52.3421C49.233 48.7746 46.7126 46.2562 46.7126 43.1496V6.48291ZM7.09776 75.8579V40.4412H30.0327V75.8579H7.09776ZM6.47226 34.1912C3.36318 34.1912 0.842773 36.7096 0.842773 39.8162V76.4829C0.842773 79.5895 3.36317 82.1079 6.47226 82.1079H30.6582C33.7673 82.1079 36.2877 79.5895 36.2877 76.4829V39.8162C36.2877 36.7096 33.7673 34.1912 30.6582 34.1912H6.47226Z" fill="#CACACA"/>
</svg>
