<svg width="318" height="160" viewBox="0 0 318 160" fill="none" xmlns="http://www.w3.org/2000/svg">
<g clip-path="url(#clip0_501_13934)">
<path d="M320.5 0.5H0.5V160.5H320.5V0.5Z" fill="white"/>
<path d="M318 14.3716H308V60.6655H318V14.3716Z" fill="#666666"/>
<path d="M318 65.4092H308V157.628H318V65.4092Z" fill="#666666"/>
<path d="M165 14.3716H155V59.605H165V14.3716Z" fill="#666666"/>
<path d="M165 64.3486H155V157.628H165V64.3486Z" fill="#666666"/>
<path d="M12 10H2V24.8934H12V10Z" fill="#666666"/>
<path d="M12 29.6367H2V55.1813H12V29.6367Z" fill="#666666"/>
<path d="M12 59.9253H2V158H12V59.9253Z" fill="#666666"/>
<g style="mix-blend-mode:multiply">
<g style="mix-blend-mode:multiply">
<path d="M12 14.6108C83.5 14.6108 83.5 18.9826 155 18.9826" stroke="#CCCCCC" stroke-width="9.2219"/>
</g>
</g>
<g style="mix-blend-mode:multiply">
<g style="mix-blend-mode:multiply">
<path d="M12 22.0576C83.5 22.0576 83.5 67.1845 155 67.1845" stroke="#CCCCCC" stroke-width="5.6715"/>
</g>
</g>
<g style="mix-blend-mode:multiply">
<g style="mix-blend-mode:multiply">
<path d="M12 36.9224C83.5 36.9224 83.5 77.3057 155 77.3057" stroke="#CCCCCC" stroke-width="14.5706"/>
</g>
</g>
<g style="mix-blend-mode:multiply">
<g style="mix-blend-mode:multiply">
<path d="M12 49.6945C83.5 49.6945 83.5 29.0806 155 29.0806" stroke="#CCCCCC" stroke-width="10.9741"/>
</g>
</g>
<path d="M12 96.4438C83.5 96.4438 83.5 121.109 155 121.109" stroke="#CCCCCC" stroke-width="73.0374"/>
<g style="mix-blend-mode:multiply">
<g style="mix-blend-mode:multiply">
<path d="M12 145.481C83.5 145.481 83.5 47.0864 155 47.0864" stroke="#CCCCCC" stroke-width="25.0374"/>
</g>
</g>
<g style="mix-blend-mode:multiply">
<g style="mix-blend-mode:multiply">
<path d="M165 29.2422H308" stroke="#CCCCCC" stroke-width="29.7406"/>
</g>
</g>
<g style="mix-blend-mode:multiply">
<g style="mix-blend-mode:multiply">
<path d="M165 51.8589C236.5 51.8589 236.5 73.1558 308 73.1558" stroke="#CCCCCC" stroke-width="15.4928"/>
</g>
</g>
<g style="mix-blend-mode:multiply">
<g style="mix-blend-mode:multiply">
<path d="M165 72.6256C236.5 72.6256 236.5 52.3892 308 52.3892" stroke="#CCCCCC" stroke-width="16.5533"/>
</g>
</g>
<g style="mix-blend-mode:multiply">
<g style="mix-blend-mode:multiply">
<path d="M165 119.265H308" stroke="#CCCCCC" stroke-width="76.7261"/>
</g>
</g>
<path d="M299.724 33.3654H304.57V34.2215H300.67V36.3427H304.1V37.175H300.67V40.3521H299.724V33.3654Z" fill="black"/>
<path d="M300.984 107.184C301.64 107.184 302.208 107.311 302.686 107.565C303.381 107.929 303.806 108.568 303.961 109.481H303.024C302.91 108.971 302.674 108.6 302.315 108.368C301.957 108.134 301.505 108.016 300.96 108.016C300.313 108.016 299.768 108.259 299.324 108.744C298.883 109.229 298.663 109.952 298.663 110.913C298.663 111.744 298.845 112.421 299.21 112.944C299.574 113.464 300.169 113.724 300.993 113.724C301.624 113.724 302.146 113.541 302.558 113.177C302.973 112.809 303.186 112.216 303.195 111.398H301.008V110.613H304.075V114.352H303.466L303.238 113.453C302.918 113.805 302.634 114.049 302.387 114.185C301.971 114.42 301.443 114.537 300.803 114.537C299.975 114.537 299.264 114.269 298.668 113.733C298.018 113.061 297.693 112.138 297.693 110.965C297.693 109.795 298.01 108.865 298.644 108.173C299.246 107.514 300.026 107.184 300.984 107.184Z" fill="black"/>
<path d="M171.424 39.0132C171.745 39.0132 172.008 38.98 172.214 38.9134C172.582 38.7897 172.883 38.5519 173.118 38.2C173.305 37.9178 173.439 37.5563 173.522 37.1156C173.569 36.8524 173.593 36.6083 173.593 36.3831C173.593 35.5175 173.42 34.8453 173.075 34.3666C172.732 33.8878 172.179 33.6484 171.415 33.6484H169.736V39.0132H171.424ZM168.785 32.8351H171.615C172.575 32.8351 173.32 33.176 173.85 33.8577C174.322 34.4728 174.559 35.2607 174.559 36.2214C174.559 36.9634 174.419 37.634 174.14 38.2332C173.649 39.2923 172.804 39.8218 171.605 39.8218H168.785V32.8351Z" fill="black"/>
<path d="M168.832 106.835H173.926V107.691H169.755V109.812H173.612V110.62H169.755V112.989H173.997V113.821H168.832V106.835Z" fill="black"/>
<path d="M19.328 17.4166L18.2674 14.3299L17.1402 17.4166H19.328ZM17.7728 13.2931H18.8429L21.3779 20.2798H20.3411L19.6324 18.1871H16.8691L16.1129 20.2798H15.1427L17.7728 13.2931Z" fill="black"/>
<path d="M18.3673 41.2095C18.7668 41.2095 19.0775 41.154 19.2995 41.0431C19.6483 40.8687 19.8227 40.5548 19.8227 40.1014C19.8227 39.6448 19.6372 39.3372 19.2662 39.1787C19.0569 39.0899 18.7462 39.0455 18.334 39.0455H16.6456V41.2095H18.3673ZM18.686 44.4341C19.2662 44.4341 19.68 44.2661 19.9273 43.93C20.0827 43.7176 20.1603 43.4607 20.1603 43.1595C20.1603 42.6522 19.9336 42.3066 19.4802 42.1227C19.2393 42.0244 18.9206 41.9753 18.5243 41.9753H16.6456V44.4341H18.686ZM15.7182 38.256H18.7193C19.5373 38.256 20.1191 38.5001 20.4647 38.9884C20.6677 39.277 20.7691 39.6099 20.7691 39.9872C20.7691 40.4279 20.6439 40.7894 20.3934 41.0716C20.2634 41.2206 20.0763 41.357 19.8322 41.4806C20.1905 41.617 20.4584 41.7707 20.636 41.942C20.9499 42.2463 21.1068 42.6665 21.1068 43.2023C21.1068 43.6526 20.9657 44.06 20.6835 44.4246C20.2618 44.97 19.5912 45.2427 18.6717 45.2427H15.7182V38.256Z" fill="black"/>
<path d="M18.686 104.619C19.5706 104.619 20.2571 104.852 20.7453 105.318C21.2336 105.784 21.5047 106.314 21.5586 106.907H20.636C20.5313 106.456 20.3221 106.1 20.0082 105.837C19.6974 105.573 19.2599 105.442 18.6955 105.442C18.0074 105.442 17.451 105.684 17.0261 106.169C16.6044 106.651 16.3935 107.392 16.3935 108.391C16.3935 109.209 16.5838 109.873 16.9643 110.383C17.3479 110.891 17.9186 111.144 18.6764 111.144C19.374 111.144 19.9051 110.876 20.2697 110.341C20.4631 110.058 20.6074 109.687 20.7025 109.228H21.6252C21.5428 109.963 21.2701 110.58 20.8072 111.078C20.2523 111.677 19.504 111.977 18.5623 111.977C17.7506 111.977 17.0689 111.731 16.5172 111.239C15.7911 110.589 15.428 109.586 15.428 108.229C15.428 107.198 15.7007 106.353 16.2461 105.694C16.8358 104.977 17.6491 104.619 18.686 104.619Z" fill="black"/>
<path d="M7.979 6.25781C7.87484 6.48568 7.6958 6.67936 7.44189 6.83887C7.1945 7.00488 6.87386 7.09115 6.47998 7.09766C5.84847 7.09115 5.33252 6.86816 4.93213 6.42871C4.51872 5.99577 4.30876 5.36589 4.30225 4.53906C4.29574 3.80013 4.46175 3.14746 4.80029 2.58105C5.13558 2.00814 5.70199 1.71517 6.49951 1.70215C7.19287 1.70215 7.6958 1.99837 8.0083 2.59082H8.03271V1.7998H9.31201V7H7.99854V6.25781H7.979ZM5.98193 5.46191C6.15446 5.77441 6.44417 5.93392 6.85107 5.94043C7.24495 5.93392 7.5249 5.77441 7.69092 5.46191C7.85042 5.15918 7.93018 4.81576 7.93018 4.43164C7.93669 4.03776 7.8667 3.68132 7.72021 3.3623C7.56722 3.03353 7.271 2.86589 6.83154 2.85938C6.62972 2.85938 6.45882 2.90658 6.31885 3.00098C6.17236 3.10189 6.05355 3.23535 5.9624 3.40137C5.78662 3.73991 5.69873 4.0931 5.69873 4.46094C5.69873 4.82552 5.79313 5.15918 5.98193 5.46191Z" fill="black"/>
<path d="M158.982 6.37012H158.958V8.95801H157.561V2.00977C157.561 1.33594 157.758 0.795573 158.152 0.388672C158.529 -0.0247396 159.099 -0.234701 159.861 -0.241211C160.466 -0.241211 160.982 -0.104492 161.409 0.168945C161.835 0.448893 162.055 0.922526 162.068 1.58984C162.068 1.9707 161.969 2.2946 161.77 2.56152C161.562 2.83496 161.262 3.014 160.872 3.09863V3.11816C161.37 3.16048 161.762 3.35742 162.048 3.70898C162.335 4.05729 162.478 4.49837 162.478 5.03223C162.472 5.65723 162.292 6.15365 161.941 6.52148C161.58 6.89909 161.086 7.09115 160.461 7.09766C160.168 7.09766 159.892 7.03906 159.631 6.92188C159.364 6.80143 159.148 6.61751 158.982 6.37012ZM158.958 4.43164C158.967 5.45703 159.345 5.95996 160.09 5.94043C160.409 5.94043 160.655 5.8265 160.828 5.59863C160.997 5.39355 161.082 5.14128 161.082 4.8418C161.069 4.11263 160.694 3.74154 159.958 3.72852C159.874 3.72852 159.791 3.74316 159.709 3.77246V2.68848H159.91C160.157 2.68848 160.357 2.60547 160.51 2.43945C160.657 2.27344 160.73 2.05371 160.73 1.78027C160.73 1.50684 160.653 1.28385 160.5 1.11133C160.347 0.945312 160.134 0.862305 159.861 0.862305C159.239 0.868815 158.938 1.22526 158.958 1.93164V4.43164Z" fill="black"/>
<path d="M315.6 1.7998L313.73 7V8.95801H312.27V7L310.4 1.7998H311.938L312.988 5.03223H313.007L314.057 1.7998H315.6Z" fill="black"/>
</g>
<defs>
<clipPath id="clip0_501_13934">
<rect width="320" height="160" fill="white"/>
</clipPath>
</defs>
</svg>
