<svg width="35" height="22" viewBox="0 0 35 22" fill="none" xmlns="http://www.w3.org/2000/svg">
<path d="M22.1276 21.5H13.6955L17.2791 0.5H25.3739C27.5944 0.5 29.4494 0.934081 30.9391 1.80224C32.4287 2.67041 33.4863 3.91113 34.1116 5.52441C34.737 7.13768 34.86 9.05858 34.4805 11.2871C34.1152 13.4336 33.3738 15.269 32.2566 16.7934C31.1464 18.3178 29.727 19.4834 27.9984 20.29C26.2768 21.0966 24.3199 21.5 22.1276 21.5ZM20.3779 16.6601H22.507C23.5751 16.6601 24.5272 16.479 25.3634 16.1167C26.2066 15.7475 26.9093 15.1323 27.4714 14.271C28.0406 13.4028 28.4516 12.2168 28.7046 10.7129C28.9435 9.291 28.9365 8.19383 28.6835 7.42138C28.4305 6.64208 27.9492 6.10204 27.2395 5.80126C26.5298 5.49364 25.6128 5.33983 24.4885 5.33983H22.3173L20.3779 16.6601Z" fill="white"/>
<path d="M6.39104 0.5H7.30409V1.41304H6.39104V0.5Z" fill="white"/>
<path d="M8.21747 2.32601H9.13051V3.23905H8.21747V2.32601Z" fill="white"/>
<path d="M8.21747 5.06524H9.13051V5.97828H8.21747V5.06524Z" fill="white"/>
<path d="M7.30446 6.89125H8.2175V7.80429H7.30446V6.89125Z" fill="white"/>
<path d="M4.56503 6.89125H5.47807V7.80429H4.56503V6.89125Z" fill="white"/>
<path d="M6.39104 8.71726H7.30409V9.6303H6.39104V8.71726Z" fill="white"/>
<path d="M8.21747 14.1955H9.13051V15.1085H8.21747V14.1955Z" fill="white"/>
<path d="M9.13047 10.5435H10.0435V11.4565H9.13047V10.5435Z" fill="white"/>
<path d="M4.56503 14.1955H5.47807V15.1085H4.56503V14.1955Z" fill="white"/>
<path d="M9.13047 16.9347H10.0435V17.8478H9.13047V16.9347Z" fill="white"/>
<path d="M3.65203 16.9347H4.56507V17.8478H3.65203V16.9347Z" fill="white"/>
<path d="M4.56503 18.7607H5.47807V19.6738H4.56503V18.7607Z" fill="white"/>
<path d="M0 20.587H0.913042V21.5H0V20.587Z" fill="white"/>
<path d="M2.73943 20.587H3.65247V21.5H2.73943V20.587Z" fill="white"/>
<path d="M0.913006 16.0217H1.82605V16.9348H0.913006V16.0217Z" fill="white"/>
<path d="M6.39104 12.3697H7.30409V13.2827H6.39104V12.3697Z" fill="white"/>
<path d="M3.65203 12.3697H4.56507V13.2827H3.65203V12.3697Z" fill="white"/>
<path d="M2.73943 14.1955H3.65247V15.1085H2.73943V14.1955Z" fill="white"/>
<path d="M6.39104 10.5435H7.30409V11.4565H6.39104V10.5435Z" fill="white"/>
<path d="M4.56503 10.5435H5.47807V11.4565H4.56503V10.5435Z" fill="white"/>
<path d="M6.39104 4.15202H7.30409V5.06507H6.39104V4.15202Z" fill="white"/>
<path d="M6.39104 16.0217H7.30409V16.9348H6.39104V16.0217Z" fill="white"/>
<path d="M1.82601 18.7607H2.73905V19.6738H1.82601V18.7607Z" fill="white"/>
<path d="M0.913006 12.3697H1.82605V13.2827H0.913006V12.3697Z" fill="white"/>
<path d="M2.73943 8.71726H3.65247V9.6303H2.73943V8.71726Z" fill="white"/>
<path d="M3.65203 5.06524H4.56507V5.97828H3.65203V5.06524Z" fill="white"/>
<path d="M3.65203 0.5H4.56507V1.41304H3.65203V0.5Z" fill="white"/>
<path d="M4.56503 2.32601H5.47807V3.23905H4.56503V2.32601Z" fill="white"/>
<path d="M13.6955 15.1087H15.5216V16.0218H13.6955V15.1087Z" fill="white"/>
<path d="M10.0435 14.1955H16.4348V15.1085H10.0435V14.1955Z" fill="white"/>
<path d="M8.21747 12.3697H17.3479V13.2827H8.21747V12.3697Z" fill="white"/>
<path d="M9.13047 0.5H26.4783V1.41304H9.13047V0.5Z" fill="white"/>
<path d="M10.9565 5.06524H20.0869V5.97828H10.9565V5.06524Z" fill="white"/>
<path d="M9.13051 3.23905L19.1739 3.23922V4.15227H9.13047L9.13051 3.23905Z" fill="white"/>
<path d="M5.47845 20.587H21.0002V21.5H5.47845V20.587Z" fill="white"/>
<path d="M10.0435 6.89125H18.2609V7.80429H10.0435V6.89125Z" fill="white"/>
<path d="M9.08946 8.64938H16.4551V9.58968H9.08946V8.64938Z" fill="white"/>
<path d="M11.8695 10.5435H18.2608V11.4565H11.8695V10.5435Z" fill="white"/>
<path d="M13.6955 5.97824H16.4346V6.89128H13.6955V5.97824Z" fill="white"/>
<path d="M11.8695 13.2827H15.5217V14.1957H11.8695V13.2827Z" fill="white"/>
<path d="M12.7825 1.41301H17.3477V2.32605H12.7825V1.41301Z" fill="white"/>
<path d="M13.6955 9.63027H17.3477V10.5433H13.6955V9.63027Z" fill="white"/>
<path d="M11.8695 16.0217L15.5216 16.0218L15.5217 16.9348H11.8695V16.0217Z" fill="white"/>
<path d="M7.30446 18.7607H15.5218V19.6738H7.30446V18.7607Z" fill="white"/>
<path d="M10.9565 17.8479H15.5217L15.5218 18.7607L10.9565 18.761V17.8479Z" fill="white"/>
<path d="M12.7825 19.674H17.3477V20.587H12.7825V19.674Z" fill="white"/>
<path d="M11.8695 5.06524H20.0869V5.97828H11.8695V5.06524Z" fill="white"/>
</svg>
