<svg width="68" height="68" viewBox="0 0 68 68" fill="none" xmlns="http://www.w3.org/2000/svg">
<path d="M51 11.3333C49.436 11.3333 48.1667 12.6026 48.1667 14.1666V53.8333C48.1667 55.3973 49.436 56.6666 51 56.6666H59.5C61.064 56.6666 62.3333 55.3973 62.3333 53.8333V14.1666C62.3333 12.6026 61.064 11.3333 59.5 11.3333H51ZM31.1667 22.6666C29.6027 22.6666 28.3333 23.9359 28.3333 25.4999V53.8333C28.3333 55.3973 29.6027 56.6666 31.1667 56.6666H39.6667C41.2307 56.6666 42.5 55.3973 42.5 53.8333V25.4999C42.5 23.9359 41.2307 22.6666 39.6667 22.6666H31.1667ZM11.3333 33.9999C9.76933 33.9999 8.5 35.2693 8.5 36.8333V53.8333C8.5 55.3973 9.76933 56.6666 11.3333 56.6666H19.8333C21.3973 56.6666 22.6667 55.3973 22.6667 53.8333V36.8333C22.6667 35.2693 21.3973 33.9999 19.8333 33.9999H11.3333Z" fill="#ACACAC"/>
</svg>
