<svg width="68" height="68" viewBox="0 0 68 68" fill="none" xmlns="http://www.w3.org/2000/svg">
<path d="M63.24 3.3999C60.6103 3.3999 58.48 5.53021 58.48 8.1599C58.48 8.53709 58.5278 8.91428 58.6075 9.2649L48.6625 18.4874C48.3225 18.413 47.9613 18.3599 47.6 18.3599C46.9094 18.3599 46.24 18.5193 45.645 18.7849L38.7175 14.6199C38.5422 12.1496 36.5128 10.1999 34 10.1999C31.3703 10.1999 29.24 12.3302 29.24 14.9599C29.24 15.0608 29.2772 15.1565 29.2825 15.2574L21.7175 21.2924C21.3031 21.1755 20.8569 21.0799 20.4 21.0799C18.0572 21.0799 16.1234 22.7587 15.725 24.9899L7.565 28.7724C6.78406 28.204 5.80125 27.8799 4.76 27.8799C2.13031 27.8799 0 30.0102 0 32.6399C0 35.2696 2.13031 37.3999 4.76 37.3999C6.93281 37.3999 8.73906 35.9496 9.3075 33.9574L18.02 29.9624C18.7159 30.3662 19.5394 30.5999 20.4 30.5999C23.0297 30.5999 25.16 28.4696 25.16 25.8399C25.16 25.739 25.1228 25.6433 25.1175 25.5424L32.6825 19.5074C33.0969 19.6243 33.5431 19.7199 34 19.7199C34.68 19.7199 35.3281 19.5499 35.9125 19.2949L42.8825 23.4599C43.0578 25.9302 45.0872 27.8799 47.6 27.8799C50.2297 27.8799 52.36 25.7496 52.36 23.1199C52.36 22.9074 52.3441 22.6896 52.3175 22.4824L62.73 12.8774C62.8947 12.8933 63.07 12.9199 63.24 12.9199C65.8697 12.9199 68 10.7896 68 8.1599C68 5.53021 65.8697 3.3999 63.24 3.3999ZM63.24 38.7599C60.6103 38.7599 58.48 40.8902 58.48 43.5199C58.48 43.9077 58.5172 44.3062 58.6075 44.6674L48.6625 53.8474C48.3225 53.773 47.9613 53.7199 47.6 53.7199C47.3131 53.7199 47.0209 53.7571 46.75 53.8049L38.675 45.7299C38.7228 45.459 38.76 45.1668 38.76 44.8799C38.76 42.2502 36.6297 40.1199 34 40.1199C31.3703 40.1199 29.24 42.2502 29.24 44.8799C29.24 44.9808 29.2772 45.0765 29.2825 45.1774L21.76 51.2124C21.3297 51.0849 20.8675 50.9999 20.4 50.9999C19.04 50.9999 17.8234 51.5737 16.9575 52.4874L9.18 51.2549C8.47875 49.5018 6.76281 48.2799 4.76 48.2799C2.13031 48.2799 0 50.4102 0 53.0399C0 55.6696 2.13031 57.7999 4.76 57.7999C5.97656 57.7999 7.06563 57.3165 7.905 56.5674L16.15 57.8424C16.9203 59.4308 18.5194 60.5199 20.4 60.5199C23.0297 60.5199 25.16 58.3896 25.16 55.7599C25.16 55.659 25.1228 55.5633 25.1175 55.4624L32.6825 49.4274C33.0969 49.5443 33.5431 49.6399 34 49.6399C34.2869 49.6399 34.5791 49.6027 34.85 49.5549L42.925 57.6299C42.8772 57.9008 42.84 58.193 42.84 58.4799C42.84 61.1096 44.9703 63.2399 47.6 63.2399C50.2297 63.2399 52.36 61.1096 52.36 58.4799C52.36 58.2674 52.3441 58.0496 52.3175 57.8424L62.7725 48.2374C62.9266 48.2533 63.0806 48.2799 63.24 48.2799C65.8697 48.2799 68 46.1496 68 43.5199C68 40.8902 65.8697 38.7599 63.24 38.7599Z" fill="#ACACAC"/>
</svg>
