<svg width="70" height="70" viewBox="0 0 70 70" fill="none" xmlns="http://www.w3.org/2000/svg">
<path d="M61.25 25.7688V29.586L55.9016 37.2641C55.6938 37.5704 55.3656 37.7782 54.9719 37.7344C54.6 37.7235 54.2609 37.5266 54.075 37.1985L51.0453 32.1782L48.7375 33.7204C48.4641 33.9063 48.125 33.95 47.8188 33.8625C47.5016 33.7641 47.25 33.5454 47.1188 33.2391L44.975 28.2297L42.6016 35.35C42.4922 35.6672 42.2406 35.9188 41.9234 36.0391L39.1125 37.0016L35.9297 42.1422C35.7328 42.4594 35.3828 42.6563 35 42.6563C34.9891 42.6563 34.9891 42.6563 34.9781 42.6563C34.5953 42.6454 34.2453 42.4375 34.0484 42.1094L28.8531 32.9985L26.1516 38.7516C26.0094 39.036 25.7578 39.2438 25.4516 39.3313C25.1453 39.4188 24.8172 39.3751 24.5547 39.1891L21.8422 37.4063L15.925 41.3766C15.6516 41.5626 15.3234 41.6063 15.0172 41.5188L8.75 39.725V37.461L15.1266 39.2766L21.2297 35.186C21.5906 34.9454 22.0719 34.9344 22.4328 35.186L24.7078 36.6735L27.7703 30.1547C27.9453 29.7938 28.3062 29.5532 28.7109 29.5313C29.1156 29.4766 29.5094 29.7282 29.7062 30.0782L35.0438 39.4188L37.4609 35.5141C37.5922 35.3063 37.8 35.1422 38.0297 35.0547L40.6984 34.1469L43.8047 24.8063C43.9469 24.3797 44.3406 24.0844 44.8 24.0625C45.2703 24.0407 45.6641 24.3032 45.85 24.7297L48.6172 31.1719L50.7937 29.7172C51.0344 29.5532 51.3406 29.4875 51.6359 29.5532C51.9312 29.6188 52.1828 29.8047 52.3359 30.0672L55.0812 34.6282L61.25 25.7688Z" fill="white"/>
<path d="M45.9375 8.75H43.75V61.25H45.9375V8.75Z" fill="white"/>
<path d="M44.8438 28.4375C46.6559 28.4375 48.125 26.9684 48.125 25.1562C48.125 23.3441 46.6559 21.875 44.8438 21.875C43.0316 21.875 41.5625 23.3441 41.5625 25.1562C41.5625 26.9684 43.0316 28.4375 44.8438 28.4375Z" fill="white"/>
<rect x="1" y="1" width="68" height="68" rx="7" stroke="white" stroke-width="2"/>
</svg>
