<svg width="68" height="68" viewBox="0 0 68 68" fill="none" xmlns="http://www.w3.org/2000/svg">
<path d="M6.77882 5.42131C6.41859 5.42694 6.07531 5.57526 5.82432 5.83372C5.57333 6.09218 5.43514 6.43966 5.44007 6.7999V62.5599H61.2001C61.3803 62.5625 61.5592 62.5292 61.7264 62.462C61.8937 62.3948 62.0459 62.295 62.1742 62.1684C62.3026 62.0419 62.4045 61.8911 62.4741 61.7248C62.5436 61.5586 62.5794 61.3801 62.5794 61.1999C62.5794 61.0197 62.5436 60.8412 62.4741 60.675C62.4045 60.5087 62.3026 60.3579 62.1742 60.2314C62.0459 60.1048 61.8937 60.0051 61.7264 59.9379C61.5592 59.8707 61.3803 59.8374 61.2001 59.8399H8.16007V6.7999C8.16256 6.61795 8.12852 6.43734 8.05995 6.26879C7.99138 6.10023 7.88969 5.94714 7.7609 5.81859C7.6321 5.69004 7.47882 5.58865 7.31013 5.5204C7.14144 5.45216 6.96077 5.41847 6.77882 5.42131ZM57.1201 6.7999C55.6773 6.7999 54.2936 7.37304 53.2734 8.39324C52.2532 9.41344 51.6801 10.7971 51.6801 12.2399C51.6801 13.6827 52.2532 15.0664 53.2734 16.0866C54.2936 17.1068 55.6773 17.6799 57.1201 17.6799C58.5628 17.6799 59.9465 17.1068 60.9667 16.0866C61.9869 15.0664 62.5601 13.6827 62.5601 12.2399C62.5601 10.7971 61.9869 9.41344 60.9667 8.39324C59.9465 7.37304 58.5628 6.7999 57.1201 6.7999ZM44.8801 10.8799C43.4373 10.8799 42.0536 11.453 41.0334 12.4732C40.0132 13.4934 39.4401 14.8771 39.4401 16.3199C39.4401 17.7627 40.0132 19.1464 41.0334 20.1666C42.0536 21.1868 43.4373 21.7599 44.8801 21.7599C46.3228 21.7599 47.7065 21.1868 48.7267 20.1666C49.7469 19.1464 50.3201 17.7627 50.3201 16.3199C50.3201 14.8771 49.7469 13.4934 48.7267 12.4732C47.7065 11.453 46.3228 10.8799 44.8801 10.8799ZM54.4001 20.3999C52.9573 20.3999 51.5736 20.973 50.5534 21.9932C49.5332 23.0134 48.9601 24.3971 48.9601 25.8399C48.9601 27.2827 49.5332 28.6664 50.5534 29.6866C51.5736 30.7068 52.9573 31.2799 54.4001 31.2799C55.8428 31.2799 57.2265 30.7068 58.2467 29.6866C59.2669 28.6664 59.8401 27.2827 59.8401 25.8399C59.8401 24.3971 59.2669 23.0134 58.2467 21.9932C57.2265 20.973 55.8428 20.3999 54.4001 20.3999ZM39.4401 21.7599C37.9973 21.7599 36.6136 22.333 35.5934 23.3532C34.5732 24.3734 34.0001 25.7571 34.0001 27.1999C34.0001 28.6427 34.5732 30.0264 35.5934 31.0466C36.6136 32.0668 37.9973 32.6399 39.4401 32.6399C40.8828 32.6399 42.2665 32.0668 43.2867 31.0466C44.3069 30.0264 44.8801 28.6427 44.8801 27.1999C44.8801 25.7571 44.3069 24.3734 43.2867 23.3532C42.2665 22.333 40.8828 21.7599 39.4401 21.7599ZM25.8401 27.1999C24.3973 27.1999 23.0136 27.773 21.9934 28.7932C20.9732 29.8134 20.4001 31.1971 20.4001 32.6399C20.4001 34.0827 20.9732 35.4664 21.9934 36.4866C23.0136 37.5068 24.3973 38.0799 25.8401 38.0799C27.2828 38.0799 28.6665 37.5068 29.6867 36.4866C30.7069 35.4664 31.2801 34.0827 31.2801 32.6399C31.2801 31.1971 30.7069 29.8134 29.6867 28.7932C28.6665 27.773 27.2828 27.1999 25.8401 27.1999ZM48.9601 31.2799C47.5173 31.2799 46.1336 31.853 45.1134 32.8732C44.0932 33.8934 43.5201 35.2771 43.5201 36.7199C43.5201 38.1627 44.0932 39.5464 45.1134 40.5666C46.1336 41.5868 47.5173 42.1599 48.9601 42.1599C50.4028 42.1599 51.7865 41.5868 52.8067 40.5666C53.8269 39.5464 54.4001 38.1627 54.4001 36.7199C54.4001 35.2771 53.8269 33.8934 52.8067 32.8732C51.7865 31.853 50.4028 31.2799 48.9601 31.2799ZM36.7201 33.9999C35.2773 33.9999 33.8936 34.573 32.8734 35.5932C31.8532 36.6134 31.2801 37.9971 31.2801 39.4399C31.2801 40.8827 31.8532 42.2664 32.8734 43.2866C33.8936 44.3068 35.2773 44.8799 36.7201 44.8799C38.1628 44.8799 39.5465 44.3068 40.5667 43.2866C41.5869 42.2664 42.1601 40.8827 42.1601 39.4399C42.1601 37.9971 41.5869 36.6134 40.5667 35.5932C39.5465 34.573 38.1628 33.9999 36.7201 33.9999ZM17.6801 39.4399C16.2373 39.4399 14.8536 40.013 13.8334 41.0332C12.8132 42.0534 12.2401 43.4371 12.2401 44.8799C12.2401 46.3227 12.8132 47.7064 13.8334 48.7266C14.8536 49.7468 16.2373 50.3199 17.6801 50.3199C19.1228 50.3199 20.5065 49.7468 21.5267 48.7266C22.5469 47.7064 23.1201 46.3227 23.1201 44.8799C23.1201 43.4371 22.5469 42.0534 21.5267 41.0332C20.5065 40.013 19.1228 39.4399 17.6801 39.4399ZM29.9201 44.8799C28.4773 44.8799 27.0936 45.453 26.0734 46.4732C25.0532 47.4934 24.4801 48.8771 24.4801 50.3199C24.4801 51.7627 25.0532 53.1464 26.0734 54.1666C27.0936 55.1868 28.4773 55.7599 29.9201 55.7599C31.3628 55.7599 32.7465 55.1868 33.7667 54.1666C34.7869 53.1464 35.3601 51.7627 35.3601 50.3199C35.3601 48.8771 34.7869 47.4934 33.7667 46.4732C32.7465 45.453 31.3628 44.8799 29.9201 44.8799Z" fill="#ACACAC"/>
</svg>
